<svg xmlns="http://www.w3.org/2000/svg">
 <style> :root svg:not(:target) { display: none } </style>

<svg id="arrow-right" xmlns="http://www.w3.org/2000/svg" fill="none" viewBox="0 0 32 12"><path stroke="#000" stroke-width="2" d="M0 6h18"/><path fill="#000" d="m24 6-6.75 5.196V.804L24 6Z"/></svg>

<svg id="slider-line" viewBox="0 0 4 100%" xmlns="http://www.w3.org/2000/svg" >
<rect width="4" height="100%" rx="2"/>
</svg>


<svg id="slider-button" width="40" height="40" viewBox="0 0 40 40" xmlns="http://www.w3.org/2000/svg" fill="none">
<style>
.slider {
  fill: #68b738;
}
</style>

<rect x="1" y="1" width="38" height="38" rx="19" fill="white"/>
<g class="slider" fill="#666666" stroke="#666666">
<path  d="M16 11L8 20L16 29V11Z"/>
<path d="M32 20L24 11V29L32 20Z"/>
<rect x="1" y="1" width="38" height="38" rx="19" stroke-width="2" fill="none"/>
</g>
</svg>

<svg id="box-present" xmlns="http://www.w3.org/2000/svg" width="78" height="80" fill="red" viewBox="0 0 78 80">
<path fill="#fff" d="M64.016 34.713H14.03c-1.754 0-3.182-1.418-3.182-3.16v-9.469c0-1.742 1.428-3.16 3.182-3.16h49.984c1.754 0 3.18 1.418 3.18 3.16v9.469c0 1.742-1.426 3.16-3.18 3.16ZM14.03 21.346a.751.751 0 0 0-.744.738v9.469c0 .407.334.738.744.738h49.984c.41 0 .743-.331.743-.738v-9.469a.75.75 0 0 0-.743-.738H14.03Z"/><path fill="#fff" d="M57.045 67.149H20.999c-3.377 0-6.125-2.73-6.125-6.086V33.502c0-.669.546-1.212 1.219-1.212s1.219.543 1.219 1.212v27.56c0 2.021 1.654 3.665 3.687 3.665h36.046c2.032 0 3.686-1.644 3.686-3.664V33.502c0-.669.546-1.212 1.219-1.212.672 0 1.218.543 1.218 1.212v27.56c0 3.357-2.747 6.087-6.123 6.087Z"/><path fill="#fff" d="M39.023 67.149a1.215 1.215 0 0 1-1.22-1.211V33.502c0-.669.547-1.212 1.22-1.212.672 0 1.218.543 1.218 1.212v32.435c0 .67-.545 1.212-1.218 1.212ZM23.811 21.341c-3.814-2.054-5.238-6.808-3.173-10.6 2.064-3.789 6.848-5.204 10.665-3.154 5.814 3.13 8.954 11.86 9.084 12.23l-2.3.804c-.029-.083-2.961-8.222-7.944-10.904-2.635-1.415-5.937-.438-7.36 2.177-1.426 2.618-.444 5.9 2.19 7.318l-1.162 2.13Z"/><path fill="#fff" d="m54.231 21.341-1.16-2.13a5.376 5.376 0 0 0 2.622-3.207 5.327 5.327 0 0 0-.431-4.109 5.382 5.382 0 0 0-3.226-2.604 5.426 5.426 0 0 0-4.134.426c-4.982 2.682-7.915 10.82-7.944 10.903l-2.3-.803c.131-.37 3.27-9.101 9.084-12.23a7.859 7.859 0 0 1 5.99-.617 7.8 7.8 0 0 1 4.674 3.771 7.72 7.72 0 0 1 .623 5.953 7.788 7.788 0 0 1-3.798 4.647ZM61.95 50.931H16.093a1.215 1.215 0 0 1-1.219-1.21c0-.67.546-1.212 1.219-1.212H61.95c.672 0 1.218.543 1.218 1.211 0 .669-.545 1.211-1.218 1.211Z"/>
</svg>

</svg>


